<svg width="70" height="71" viewBox="0 0 70 71" fill="none" xmlns="http://www.w3.org/2000/svg">
<path fill-rule="evenodd" clip-rule="evenodd" d="M45.3829 0.357938C41.1862 0.960253 37.2548 3.68521 35.1009 7.48488C34.7801 8.05075 33.8845 10.2175 33.1106 12.2999L31.7037 16.0859H31.1018H30.4998V15.2995C30.4998 14.6535 30.4379 14.4507 30.1535 14.1649C29.8248 13.8344 29.7229 13.8169 28.1432 13.8183C26.3039 13.82 23.1997 14.1241 21.702 14.4493C19.9846 14.8223 18.9214 15.6955 18.3648 17.1904C17.6165 19.1993 18.5228 21.4713 20.4521 22.4238C21.2436 22.8146 21.3197 22.8238 24.3056 22.8933L27.3516 22.9642L25.6677 25.0207C23.7705 27.3374 22.8466 28.6493 22.1881 29.961C21.8264 30.6816 21.6898 30.8382 21.4984 30.7522C21.3671 30.6934 20.72 30.4514 20.0605 30.2146C18.9642 29.821 18.7041 29.7834 17.0274 29.7779C14.9407 29.7708 13.8582 30.0281 12.0899 30.9516C10.7194 31.6672 8.72997 33.6649 8.03928 35.019C6.66636 37.7104 6.45603 40.4003 7.39373 43.2719L7.69012 44.1797L5.8521 46.0523C4.84103 47.0822 3.9053 48.1394 3.77269 48.4017C3.40111 49.1361 3.33805 50.2457 3.61963 51.0977L3.86072 51.8276L3.30095 52.7188C1.96401 54.8468 0.977348 57.2636 0.435066 59.7386C0.170979 60.9438 0.125413 61.6979 0.0667271 65.8297L0 70.5453H1.12829H2.25673L2.32684 65.9006C2.40133 60.9562 2.45296 60.5094 3.22364 58.1359C3.63613 56.8653 4.62336 54.7938 5.25889 53.8652C5.63879 53.3102 5.71159 53.2656 6.03648 53.3897C6.56987 53.5937 7.3682 53.5561 8.15002 53.2904C8.71769 53.0976 9.20115 52.7027 10.786 51.1373L12.7268 49.2203L13.6074 49.5241C14.7168 49.9069 15.9307 50.123 16.9704 50.123C17.7411 50.123 19.5715 49.8301 20.0957 49.6229C20.3233 49.533 20.3427 49.6734 20.345 51.4197C20.3478 53.5253 20.5656 54.8345 21.1137 56.0378L21.4712 56.8229V62.214C21.4712 66.0321 21.5213 67.7754 21.6427 68.1888C21.8717 68.9678 23.0403 70.1426 23.8152 70.3728C24.2232 70.4939 25.8829 70.5453 29.3977 70.5453C35.2058 70.5453 35.3311 70.5248 36.3259 69.4124C37.1604 68.4795 37.2713 67.9989 37.2713 65.3169C37.2713 63.1296 37.2835 63.0287 37.5511 63.0287C37.7051 63.0287 38.8635 63.1228 40.1257 63.2376C44.492 63.635 48.3918 63.7374 59.1727 63.7376L70 63.7378V62.616V61.4942L57.3388 61.4291C42.7674 61.3541 40.9669 61.2565 33.0391 60.1128C27.4862 59.3115 26.2751 58.9108 24.706 57.3559C23.7063 56.3654 23.1725 55.4256 22.8156 54.0288C22.5649 53.0472 22.5007 48.2793 22.7381 48.2793C23.0186 48.2793 24.8465 46.4006 25.4058 45.5375C26.3932 44.0141 27.1141 41.7778 27.1141 40.2386C27.1141 39.7923 27.1478 39.7477 27.4315 39.8173C28.0299 39.9644 33.5323 40.6128 35.3991 40.7561C36.4255 40.8351 38.5948 40.9425 40.2198 40.9951L43.1741 41.0906L43.6242 40.6381C44.0543 40.2057 44.0698 40.1514 43.9767 39.403C43.6335 36.6415 42.2876 33.9179 40.1734 31.7062C38.9121 30.3867 37.7939 29.5808 36.1156 28.7816C34.0358 27.7911 32.8879 27.559 29.5415 27.4522L26.6789 27.3607L29.4477 23.9581L32.2165 20.5557L33.767 20.3065C37.8584 19.6489 44.099 18.9768 49.3329 18.63C50.652 18.5425 55.8416 18.4377 60.8656 18.3969L70 18.3226V17.187V16.0516L60.7245 16.1263C51.5047 16.2005 48.3766 16.3311 42.9141 16.8698C40.2776 17.1299 36.5361 17.5892 34.8117 17.8648C34.1183 17.9755 33.5202 18.0351 33.4825 17.9971C33.3961 17.9103 36.0125 10.8448 36.6501 9.44301C37.9045 6.68515 40.3028 4.42792 43.1963 3.28172C45.2133 2.48285 45.4306 2.47107 58.236 2.47107H70V1.3365V0.201935L58.1147 0.219237C51.5778 0.228739 45.8484 0.29114 45.3829 0.357938ZM28.2426 16.8723C28.2426 17.5183 28.3046 17.7211 28.589 18.0069C28.8861 18.3057 29.0662 18.3551 29.8586 18.3551C30.5449 18.3551 30.7819 18.4048 30.7819 18.5488C30.7819 18.6553 30.4486 19.162 30.0413 19.6748L29.3007 20.6073L25.5623 20.6153C22.0724 20.6226 21.7932 20.6043 21.3641 20.3413C20.0959 19.5639 20.0276 17.8062 21.2347 17.0112C21.8429 16.6104 24.8899 16.1493 27.2199 16.1052L28.2426 16.0859V16.8723ZM33.2951 30.1081C35.3271 30.7143 37.3919 31.9804 38.7263 33.4384C39.9291 34.7527 41.1276 36.9173 41.4271 38.3164L41.5259 38.7773L40.915 38.7752C38.658 38.7677 32.426 38.2604 29.7944 37.8699L28.5953 37.6921L29.2301 37.495C30.0623 37.2364 31.2215 36.0867 31.4568 35.2862C31.8476 33.9565 31.5721 32.8964 30.5751 31.8942C29.1441 30.4557 27.342 30.4592 25.8966 31.9034C25.4518 32.3477 25.1336 32.8065 25.0708 33.0938L24.9688 33.5613L24.2839 32.8831L23.599 32.2049L24.2492 30.9393L24.8994 29.6737L28.5814 29.7369C31.8342 29.7928 32.3834 29.836 33.2951 30.1081ZM49.7561 29.8326C48.4865 30.1414 47.3122 31.108 46.729 32.3244C46.3182 33.1812 46.1694 35.4057 46.4363 36.6981C46.9789 39.3256 49.2016 41.5435 51.7863 42.0362C52.2514 42.125 55.9266 42.181 61.2727 42.181H70V41.0465V39.9119H68.8714H67.7428V38.21V36.5082H68.8714H70V35.3736V34.239H68.8714H67.7428V33.1045V31.9699H68.8714H70V30.8353V29.7008L60.0897 29.7152C54.6391 29.7233 49.9889 29.7761 49.7561 29.8326ZM19.3653 32.3853C21.0284 32.9046 22.8416 34.3272 23.6946 35.782C25.0866 38.1563 25.1994 40.9148 24.0064 43.4056C22.8145 45.8943 20.3734 47.5692 17.5942 47.8054C16.608 47.8892 14.7718 47.6604 14.6343 47.4366C14.6001 47.3812 14.9659 46.9493 15.4471 46.4771L16.322 45.6185L17.3581 45.5378C19.4098 45.3781 21.0738 44.2345 22.0023 42.3455C22.4996 41.3341 22.5292 41.1978 22.5292 39.9193C22.5292 38.6925 22.487 38.4751 22.0827 37.6172C21.4614 36.2987 20.6617 35.4776 19.3777 34.8396C18.3704 34.3392 18.2371 34.3099 16.9569 34.3099C15.6766 34.3099 15.5433 34.3392 14.5361 34.8396C12.6571 35.7731 11.5195 37.4459 11.3607 39.5085L11.2804 40.5501L10.4264 41.4296C9.95659 41.9134 9.52547 42.2802 9.4682 42.2446C9.41106 42.2091 9.28748 41.7222 9.19367 41.1627C8.51624 37.1254 11.2368 33.1008 15.264 32.1826C16.4301 31.9169 18.1345 32.0011 19.3653 32.3853ZM51.9428 33.1045V34.239H50.2499C48.4107 34.239 48.4048 34.2359 48.7076 33.4328C49.069 32.4738 49.8837 31.9839 51.1316 31.9754L51.9428 31.9699V33.1045ZM56.4571 33.1045V34.239H55.3285H54.1999V33.1045V31.9699H55.3285H56.4571V33.1045ZM60.9714 33.1045V34.239H59.8428H58.7142V33.1045V31.9699H59.8428H60.9714V33.1045ZM65.4857 33.1045V34.239H64.3571H63.2285V33.1045V31.9699H64.3571H65.4857V33.1045ZM29.0249 33.4526C29.7247 34.1561 29.2289 35.3736 28.2426 35.3736C27.9678 35.3736 27.6786 35.245 27.4604 35.0254C27.242 34.806 27.1141 34.5153 27.1141 34.239C27.1141 33.9628 27.242 33.672 27.4604 33.4526C27.6786 33.2331 27.9678 33.1045 28.2426 33.1045C28.5175 33.1045 28.8066 33.2331 29.0249 33.4526ZM34.0901 33.304C32.6668 33.9272 32.3306 35.8293 33.4457 36.9504C35.0306 38.5437 37.6279 37.1166 37.2109 34.8813C36.9613 33.5445 35.3736 32.742 34.0901 33.304ZM18.1029 36.7267C18.4425 36.847 18.9879 37.2092 19.3149 37.5316C20.6209 38.8187 20.6829 40.7682 19.4595 42.0853C19.1305 42.4396 18.9492 42.5635 19.0083 42.3938C19.2429 41.7201 19.2396 40.7715 19 40.0466C18.3979 38.2241 16.3725 37.241 14.4881 37.8566C14.3132 37.9138 14.4311 37.7375 14.7983 37.3929C15.7212 36.5268 16.8793 36.2935 18.1029 36.7267ZM51.9428 38.1356V39.763L51.5891 39.6278C50.8823 39.3576 50.4508 39.0774 49.9189 38.5427C49.3871 38.0081 49.1083 37.5742 48.8396 36.8637L48.7052 36.5082H50.324H51.9428V38.1356ZM56.4571 38.21V39.9119H55.3285H54.1999V38.21V36.5082H55.3285H56.4571V38.21ZM60.9714 38.21V39.9119H59.8428H58.7142V38.21V36.5082H59.8428H60.9714V38.21ZM65.4857 38.21V39.9119H64.3571H63.2285V38.21V36.5082H64.3571H65.4857V38.21ZM16.5445 40.3264C16.8341 40.6177 16.9569 40.8807 16.9569 41.2105C16.9569 41.6381 16.5321 42.107 12.1934 46.4688C7.85461 50.8306 7.38823 51.2576 6.9629 51.2576C6.3213 51.2576 5.6711 50.6039 5.6711 49.9589C5.6711 49.5313 6.09587 49.0625 10.4345 44.7006C14.7734 40.3389 15.2397 39.9119 15.6651 39.9119C15.9932 39.9119 16.2548 40.0353 16.5445 40.3264ZM35.4802 43.5282C35.3102 43.6479 35.046 44.1406 34.8756 44.6551C34.4127 46.0533 33.7416 46.7193 32.7953 46.7193C32.576 46.7193 32.271 46.8077 32.1176 46.9157C31.8805 47.0826 31.4364 47.0835 29.1589 46.9211C25.5341 46.6626 25.6085 46.6599 25.2032 47.0675L24.8569 47.4155V50.7294C24.8569 54.5809 24.951 55.0469 25.9262 56.0273C26.3521 56.4556 26.748 56.6944 27.2797 56.8443C27.785 56.9867 30.8859 57.2253 36.749 57.5725C44.79 58.0485 45.4937 58.0711 45.8106 57.8623C45.9997 57.7378 46.1949 57.473 46.2447 57.2741C46.379 56.736 44.0004 48.4285 43.6223 48.1154C43.4275 47.9539 42.9177 47.8488 41.9927 47.779C40.7102 47.6823 40.637 47.659 40.4454 47.2864C40.2262 46.8604 39.9758 46.7193 39.4394 46.7193C38.5497 46.7193 37.8477 46.0173 37.4185 44.6982C37.0887 43.6845 36.7484 43.3156 36.1427 43.3156C35.9445 43.3156 35.6464 43.4113 35.4802 43.5282ZM36.4308 47.6482C36.5806 47.8299 36.5714 47.9092 36.3774 48.104C36.1585 48.3243 36.1269 48.3243 35.9079 48.104C35.714 47.9092 35.7048 47.8299 35.8546 47.6482C35.9545 47.5274 36.0841 47.4284 36.1427 47.4284C36.2012 47.4284 36.3309 47.5274 36.4308 47.6482ZM47.7549 48.2219C47.4016 48.577 47.3921 48.6313 47.4795 49.7757C47.6691 52.2556 48.63 54.31 50.4611 56.1508C51.7441 57.4407 52.9208 58.1851 54.5526 58.7391L55.6812 59.1221L62.8406 59.1692L70 59.2162V58.0732V56.9304H63.3922C57.2493 56.9304 56.7069 56.9104 55.6827 56.6472C54.2635 56.2823 53.0313 55.583 52.0252 54.5714C51.1021 53.6436 50.6196 52.8733 50.1552 51.5872C49.5612 49.9422 48.3557 50.123 59.9133 50.123H70V48.9884V47.8539H59.0606H48.121L47.7549 48.2219ZM31.2052 49.34C34.5235 49.576 34.3619 49.5008 34.8739 51.0474C35.1964 52.0216 35.5459 52.3922 36.1427 52.3922C36.7322 52.3922 37.0893 52.0204 37.403 51.0804C37.8581 49.7166 37.6812 49.8008 39.8478 49.9162C40.8982 49.9723 41.8333 50.065 41.9257 50.1224C42.0999 50.2307 43.6634 55.5153 43.5538 55.6255C43.4996 55.6801 36.7249 55.3088 30.9935 54.9373C29.9073 54.8668 28.7756 54.8078 28.4787 54.8061C28.0725 54.8038 27.8366 54.7004 27.5264 54.3886L27.1141 53.974V51.5521V49.1303L27.7136 49.1324C28.0434 49.1335 29.6146 49.227 31.2052 49.34ZM25.7378 60.8312C26.8788 61.3707 28.3328 61.6951 32.1221 62.2554C33.5187 62.462 34.7408 62.6546 34.8378 62.6836C34.9699 62.723 35.0141 63.3432 35.0141 65.1581C35.0141 67.5404 35.0085 67.5856 34.6678 67.928L34.3216 68.2761H29.3712H24.4209L24.0747 67.928L23.7283 67.5799V63.5857V59.5914L24.2212 59.9694C24.4924 60.1773 25.1749 60.5652 25.7378 60.8312Z" fill="white"/>
<path fill-rule="evenodd" clip-rule="evenodd" d="M7.14596 17.5687C6.95551 17.7602 6.79962 18.0339 6.79962 18.177C6.79962 18.613 6.38134 20.0923 6.08058 20.7204C5.39102 22.16 4.01105 23.3796 2.4989 23.8854C1.52536 24.2112 1.15674 24.5619 1.15674 25.1625C1.15674 25.7471 1.5248 26.119 2.33906 26.357C4.60906 27.0204 6.33959 29.1656 6.74785 31.8219C7.01166 33.5386 8.84475 33.5386 9.10855 31.8219C9.51681 29.1656 11.2473 27.0204 13.5173 26.357C14.3316 26.119 14.6997 25.7471 14.6997 25.1625C14.6997 24.5619 14.331 24.2112 13.3575 23.8854C11.8454 23.3796 10.4654 22.16 9.77582 20.7204C9.47506 20.0923 9.05678 18.613 9.05678 18.177C9.05678 17.7598 8.42054 17.2206 7.9282 17.2206C7.65339 17.2206 7.36419 17.3492 7.14596 17.5687ZM8.39874 22.8211C8.61868 23.1711 9.21513 23.8412 9.72412 24.3099L10.6494 25.1624L9.72412 26.0149C9.21513 26.4836 8.61868 27.1537 8.39874 27.5037C8.17881 27.8537 7.96706 28.1401 7.92827 28.1401C7.88947 28.1401 7.67773 27.8537 7.45779 27.5037C7.23786 27.1537 6.64141 26.4836 6.13242 26.0149L5.20713 25.1624L6.13242 24.3099C6.64141 23.8412 7.23786 23.1711 7.45779 22.8211C7.67773 22.4711 7.88947 22.1847 7.92827 22.1847C7.96706 22.1847 8.17881 22.4711 8.39874 22.8211Z" fill="#DB3138"/>
</svg>
