<svg width="70" height="57" viewBox="0 0 70 57" fill="none" xmlns="http://www.w3.org/2000/svg">
<path fill-rule="evenodd" clip-rule="evenodd" d="M51.7938 2.46924C48.5475 4.50051 47.5886 5.03412 46.8255 5.23424L45.8799 5.48234L40.7897 4.86575C35.08 4.17422 34.2524 4.16561 31.8589 4.77274C31.1034 4.9644 29.9927 5.36549 29.3908 5.66397C28.7889 5.96246 25.4504 8.03776 21.9718 10.2756C15.4775 14.4539 15.1352 14.7181 14.885 15.7474C14.8327 15.963 14.5568 16.289 14.2425 16.5068C13.9395 16.7166 13.4993 17.179 13.2642 17.5339C12.4967 18.6924 12.4194 19.2142 12.4194 23.2281V26.8717H6.20968H0V28.0008V29.1298H18.1468C28.1276 29.1298 36.2692 29.1773 36.2393 29.2356C35.2089 31.2418 34.6016 32.8909 34.1992 34.7749C33.8453 36.4319 33.8508 40.0124 34.2098 41.6846C35.8159 49.1656 41.5808 54.7612 48.9613 56.0027C58.937 57.6809 68.3048 50.7973 69.7978 40.6921C70.3664 36.844 69.6829 33.2292 67.6317 29.2356C67.6018 29.1773 68.1224 29.1298 68.7887 29.1298H70V28.0008V26.8717H68.0288H66.0578L64.8592 25.6284C61.2511 21.8855 56.2231 19.8765 51.1593 20.1544C50.2278 20.2055 49.2594 20.2844 49.0071 20.3295C48.5745 20.4072 48.5484 20.3881 48.5484 19.9948C48.5484 19.626 48.6178 19.5571 49.1482 19.4003C50.1941 19.091 51.8292 18.1536 52.9234 17.2361C53.5055 16.748 55.8553 15.1821 58.1452 13.7565C60.435 12.3308 62.3864 11.0935 62.4816 11.007C62.6163 10.885 62.5274 10.6405 62.0845 9.91323L61.5139 8.97655L59.8648 10.0033C58.9578 10.5681 56.9773 11.8005 55.4637 12.7422C53.9501 13.6838 52.3685 14.7523 51.9489 15.1165C50.6964 16.2039 49.4554 16.9396 48.1538 17.3663C47.0279 17.7353 46.7606 17.7678 44.9496 17.7561C43.2929 17.7452 42.6204 17.6688 40.7863 17.2827C38.9345 16.8929 38.1655 16.8067 35.7762 16.7206C34.2238 16.6646 32.786 16.5484 32.5812 16.4623C31.8698 16.1636 30.7661 14.9887 30.7661 14.53C30.7661 14.4872 32.4808 14.4524 34.5766 14.4524H38.3871V13.3233V12.1943H33.7243H29.0614L24.1122 14.94C18.8992 17.832 18.2566 18.0984 17.509 17.6789C17.0076 17.3974 16.8158 16.793 17.0813 16.3308C17.278 15.9884 28.7439 8.49559 30.2016 7.75692C31.5627 7.06722 33.6566 6.55266 35.1318 6.54518C35.5638 6.54307 38.1218 6.81037 40.8161 7.13934C47.6016 7.96791 47.0708 8.08829 53.0786 4.35825C55.0502 3.13409 56.7418 2.06123 56.8377 1.97387C56.9738 1.8501 56.8929 1.62161 56.4688 0.932058C56.1701 0.446151 55.9011 0.0269978 55.8711 0.00046553C55.8411 -0.0260667 54.0063 1.0849 51.7938 2.46924ZM13.0544 2.20166C12.6759 2.41631 12.6131 2.52428 12.2686 3.55113C11.9134 4.60974 11.3401 5.2348 10.6145 5.3549C9.7331 5.50055 9.34613 5.70857 9.17141 6.13069C8.82875 6.95771 9.32425 7.57006 10.4818 7.75029C11.3091 7.87914 11.8718 8.47696 12.2683 9.64847C12.6284 10.712 12.9476 11.0653 13.5484 11.0653C14.1444 11.0653 14.4951 10.6964 14.816 9.7323C14.9825 9.23186 15.2524 8.65252 15.4157 8.44492C15.7493 8.02097 16.461 7.67817 17.0079 7.67817C17.5143 7.67817 18.0645 7.09022 18.0645 6.54914C18.0645 5.96867 17.5157 5.4201 16.9349 5.4201C15.9493 5.4201 15.2854 4.77655 14.816 3.36597C14.4118 2.15141 13.8258 1.76416 13.0544 2.20166ZM13.8256 6.33137C13.9602 6.49353 13.9536 6.59797 13.7942 6.82547C13.593 7.11281 13.5913 7.1128 13.3391 6.83407C13.1321 6.60516 13.1184 6.51555 13.2639 6.34012C13.4861 6.07226 13.6089 6.07028 13.8256 6.33137ZM5.12002 13.4937C4.93867 13.5813 4.70778 13.919 4.57173 14.2957C3.90561 16.1404 3.5995 16.4855 2.4356 16.7028C1.75748 16.8295 1.12903 17.3495 1.12903 17.7837C1.12903 18.2288 1.5623 18.8243 1.94306 18.9023C3.49788 19.221 3.88034 19.5436 4.36413 20.9443C4.71653 21.9644 5.06724 22.3556 5.62935 22.3556C6.24129 22.3556 6.58946 21.9939 6.91278 21.0226C7.07931 20.5222 7.34915 19.9428 7.51244 19.7352C7.84607 19.3113 8.55778 18.9685 9.10466 18.9685C9.61103 18.9685 10.1613 18.3805 10.1613 17.8395C10.1613 17.259 9.61244 16.7104 9.03169 16.7104C8.04605 16.7104 7.38218 16.0669 6.91278 14.6563C6.5052 13.4314 5.96919 13.0838 5.12002 13.4937ZM28.6169 15.4139C28.6527 15.5214 28.5043 15.5798 28.2022 15.5769C27.7561 15.5726 27.7461 15.5616 28.0085 15.3633C28.3106 15.1349 28.5299 15.1531 28.6169 15.4139ZM5.92234 17.6217C6.05698 17.7839 6.05034 17.8883 5.89101 18.1158C5.68976 18.4031 5.68806 18.4031 5.43587 18.1244C5.22883 17.8955 5.21514 17.8059 5.36065 17.6304C5.58292 17.3626 5.70571 17.3606 5.92234 17.6217ZM31.429 18.3609L32.4841 18.8824L35.4708 18.9851C38.0228 19.0731 38.7556 19.1517 40.504 19.5251C41.8834 19.8196 43.1599 19.9913 44.4204 20.0515L46.2903 20.141V20.598C46.2903 20.9789 46.2258 21.0709 45.9022 21.1512C45.1071 21.3485 42.6515 22.638 41.4784 23.4743C40.8111 23.9501 39.7076 24.909 39.0261 25.6055L37.787 26.8717H26.2322H14.6774V23.2659C14.6774 20.2147 14.7127 19.5907 14.907 19.2084C15.2202 18.5925 15.2202 18.5925 15.4634 18.9396C15.8393 19.4764 16.8707 19.9773 17.7673 20.0586C18.8962 20.1609 20.134 19.763 22.0161 18.6926L23.498 17.8499L26.936 17.8447L30.3739 17.8395L31.429 18.3609ZM35 21.2266V22.3556H36.129H37.2581V21.2266V20.0975H36.129H35V21.2266ZM54.4085 22.5632C60.9931 23.6313 66.0574 28.5524 67.4838 35.2689C67.716 36.3619 67.716 39.9621 67.4838 41.0552C66.1013 47.5655 61.3389 52.3279 54.8286 53.7104C53.7356 53.9425 50.1354 53.9425 49.0423 53.7104C44.1371 52.6687 40.2017 49.7558 37.995 45.5331C35.5515 40.8576 35.5154 35.6989 37.8927 30.9653C40.9194 24.939 47.7212 21.4786 54.4085 22.5632ZM20.3226 24.6137V25.7427H21.4516H22.5806V24.6137V23.4846H21.4516H20.3226V24.6137Z" fill="white"/>
<path fill-rule="evenodd" clip-rule="evenodd" d="M41.0657 30.6129C41.6685 29.3959 42.8221 28.4525 44.1034 28.1287C44.3363 28.0699 46.4638 28.0332 48.8312 28.0472C52.9899 28.0717 53.1573 28.0833 53.7751 28.3911C54.7807 28.8921 55.3748 29.4617 55.8977 30.4259L56.3816 31.3185L56.4283 34.432L56.4751 37.5454L56.9793 37.0834C57.8616 36.2753 58.6355 35.9845 59.9099 35.9821C61.2229 35.9796 61.9997 36.2683 62.922 37.1016C64.1648 38.2244 64.5313 39.7225 64.2206 42.4099C63.8252 45.8297 63.2652 47.0049 61.6161 47.8749L60.8978 48.254H52.43H43.9623L43.0696 47.7701C42.1054 47.2472 41.5358 46.653 41.0348 45.6475C40.7174 45.0102 40.7163 44.9849 40.7163 38.1633V31.3185L41.0657 30.6129ZM61.8836 42.8914C62.3036 40.0979 62.0665 39.0116 60.9153 38.4543C60.2693 38.1415 59.6944 38.0985 59.1366 38.3211C58.5859 38.5408 58.288 38.8757 57.8332 39.7865C57.0945 41.2657 56.7606 41.5174 54.1744 42.5448C53.3702 42.8641 52.5703 43.2578 52.3969 43.4192C51.6928 44.0746 51.9031 45.4001 52.7834 45.8554C53.1547 46.0475 53.7494 46.074 56.8725 46.0381L60.5269 45.9962L60.9561 45.5848C61.4801 45.0826 61.6116 44.7007 61.8836 42.8914ZM53.152 30.6208C53.3662 30.7808 53.6724 31.0869 53.8324 31.3012C54.1087 31.6709 54.1255 31.9031 54.1646 35.8962L54.2057 40.1018L53.0356 40.5691C51.4689 41.1949 50.9079 41.5635 50.4004 42.3011C49.709 43.306 49.4972 44.7925 49.8979 45.827C49.9916 46.0692 49.8493 46.0802 47.1657 46.0387C44.0647 45.9909 43.9692 45.966 43.2652 45.0236C42.9834 44.6463 42.9729 44.4407 42.9322 38.5404C42.9091 35.1889 42.9275 32.2422 42.9731 31.9921C43.0762 31.4271 43.6686 30.7065 44.2373 30.4545C44.5724 30.3061 45.5646 30.2712 48.7152 30.2968C52.5553 30.3281 52.7825 30.3448 53.152 30.6208Z" fill="#DB3138"/>
</svg>
