<svg width="57" height="71" viewBox="0 0 57 71" fill="none" xmlns="http://www.w3.org/2000/svg">
<path fill-rule="evenodd" clip-rule="evenodd" d="M2.27388 0.320838C1.58116 0.539182 0.399675 1.76259 0.187258 2.48156C-0.0624194 3.32671 -0.0624194 66.9518 0.187258 67.7969C0.416329 68.5722 1.58554 69.7414 2.36082 69.9705C2.8057 70.1019 7.94463 70.1421 24.3062 70.1421H45.6705L51.0711 64.7413L56.4719 59.3407V31.2017C56.4719 9.87112 56.4312 2.927 56.304 2.50245C56.2117 2.19448 55.8617 1.63711 55.5261 1.2638C54.4209 0.0344635 56.8774 0.134532 28.1833 0.150763C10.0846 0.161067 2.6256 0.210042 2.27388 0.320838ZM53.8671 2.74112L54.2136 3.08748V30.4047V57.7217H50.5956C48.1676 57.7217 46.7865 57.7782 46.3967 57.8933C45.6214 58.1224 44.4522 59.2916 44.2231 60.0669C44.1079 60.4567 44.0515 61.8378 44.0515 64.2658V67.8838H23.5092H2.96674L2.62038 67.5373L2.27388 67.191V35.1392V3.08748L2.62038 2.74112L2.96674 2.39462H28.2437H53.5207L53.8671 2.74112ZM20.975 4.85046C19.2559 5.28997 18.8881 5.54572 14.7648 9.1688C12.9794 10.7377 11.328 12.1415 11.0952 12.2884C10.8623 12.4355 10.4494 12.5566 10.1778 12.5576C9.55532 12.56 8.39825 13.0963 7.86319 13.6303C7.63821 13.8549 7.30032 14.3717 7.11232 14.7787C6.77866 15.5012 6.77175 15.591 6.81578 18.5895C6.86053 21.6359 6.86405 21.6662 7.25388 22.4061C7.7754 23.3959 8.60446 24.1773 9.54812 24.5684C10.0495 24.7763 10.3189 24.9709 10.3189 25.1253C10.3189 25.2559 10.5419 25.8083 10.8143 26.3529C12.8896 30.5012 18.7546 30.5064 20.8281 26.3617C21.1029 25.8122 21.3279 25.2759 21.3279 25.1699C21.3279 25.0101 22.318 24.9771 27.1146 24.9771C31.9113 24.9771 32.9014 25.0101 32.9014 25.1699C32.9014 25.2759 33.1244 25.8083 33.3968 26.3529C35.4721 30.5012 41.3371 30.5064 43.4106 26.3617C43.6854 25.8122 43.9103 25.2759 43.9103 25.1699C43.9103 25.0196 44.2259 24.9771 45.3407 24.9771C46.1274 24.9771 47.0324 24.8999 47.3519 24.8055C48.1272 24.5764 49.2964 23.4072 49.5255 22.6319C49.6384 22.2496 49.6971 20.9402 49.6971 18.8015C49.6971 15.915 49.6694 15.5184 49.4501 15.252C49.2649 15.027 48.2178 14.6709 45.2676 13.8295C43.103 13.2122 41.319 12.6893 41.3031 12.6673C41.2871 12.6452 40.3269 11.2945 39.1696 9.66576C38.0121 8.03685 36.8206 6.45862 36.5218 6.15855C36.223 5.85849 35.5561 5.41277 35.0398 5.16817L34.1011 4.72344L27.8909 4.69676C23.2366 4.67672 21.5039 4.71525 20.975 4.85046ZM25.9855 9.66336V12.4156H20.2391C15.357 12.4156 14.5238 12.3864 14.6993 12.2215C15.9042 11.09 19.9132 7.69346 20.2526 7.51647C21.1709 7.03786 21.8316 6.92989 23.9037 6.92057L25.9855 6.91112V9.66336ZM34.1011 7.24661C34.968 7.65549 35.0486 7.74483 36.9181 10.3691L38.4263 12.4862L34.3584 12.5292C32.1209 12.5528 29.8299 12.5315 29.267 12.4818L28.2437 12.3915V9.65136V6.91112L30.8196 6.91253C33.2305 6.9138 33.4405 6.93511 34.1011 7.24661ZM42.5862 15.4041L44.5786 15.9756L44.3504 16.4186C43.9967 17.1047 44.0508 18.4334 44.4592 19.0944C44.9304 19.8568 45.6963 20.3203 46.6472 20.4184L47.4389 20.5001V21.263C47.4389 21.8849 47.3748 22.0901 47.0924 22.3724C46.7706 22.6943 46.6454 22.7189 45.3281 22.7189C44.224 22.7189 43.9103 22.6762 43.9103 22.5261C43.9103 22.4201 43.6873 21.8877 43.4149 21.343C42.8128 20.1397 41.9659 19.3243 40.6895 18.7196C39.8369 18.3157 39.6184 18.2729 38.4059 18.2729C37.1933 18.2729 36.9748 18.3157 36.1222 18.7196C34.8459 19.3243 33.9989 20.1397 33.3968 21.343C33.1244 21.8877 32.9014 22.4201 32.9014 22.5261C32.9014 22.6858 31.9113 22.7189 27.1146 22.7189C22.318 22.7189 21.3279 22.6858 21.3279 22.5261C21.3279 22.4201 21.1049 21.8877 20.8325 21.343C20.2303 20.1397 19.3834 19.3243 18.107 18.7196C17.2544 18.3157 17.0359 18.2729 15.8234 18.2729C14.6108 18.2729 14.3924 18.3157 13.5397 18.7196C13.0213 18.9652 12.3156 19.4256 11.9718 19.7425C11.3532 20.3127 10.46 21.7701 10.46 22.2093C10.46 22.5104 10.2914 22.496 9.86188 22.1581C9.32738 21.7376 9.04863 21.0191 9.04863 20.0615V19.2111L9.80175 18.8661C11.1849 18.233 12.1764 16.8727 12.385 15.3222L12.4782 14.63L26.5358 14.7311L40.5935 14.8325L42.5862 15.4041ZM10.1237 15.2618C10.0291 15.7348 9.40868 16.6498 9.18257 16.6498C9.00981 16.6498 9.01024 16.0635 9.18328 15.6083C9.2904 15.3266 9.88093 14.8504 10.1601 14.8206C10.1892 14.8175 10.1728 15.0161 10.1237 15.2618ZM16.9525 17.0732V18.2024H18.6462H20.3399V17.0732V15.9441H18.6462H16.9525V17.0732ZM30.502 17.0732V18.2024H32.1957H33.8894V17.0732V15.9441H32.1957H30.502V17.0732ZM47.4389 17.6378C47.4389 18.162 47.4106 18.2024 47.0437 18.2024C46.6018 18.2024 46.3097 17.9777 46.3097 17.6378C46.3097 17.2979 46.6018 17.0732 47.0437 17.0732C47.4106 17.0732 47.4389 17.1136 47.4389 17.6378ZM16.8656 20.6322C18.0785 20.9906 19.2107 22.5431 19.2107 23.848C19.2107 25.5969 17.5722 27.2354 15.8234 27.2354C14.0745 27.2354 12.436 25.5969 12.436 23.848C12.436 22.9609 12.7589 22.2452 13.4898 21.5128C14.4799 20.5206 15.5463 20.2424 16.8656 20.6322ZM39.448 20.6322C40.661 20.9906 41.7932 22.5431 41.7932 23.848C41.7932 25.5969 40.1547 27.2354 38.4059 27.2354C36.657 27.2354 35.0185 25.5969 35.0185 23.848C35.0185 22.9609 35.3414 22.2452 36.0722 21.5128C37.0623 20.5206 38.1288 20.2424 39.448 20.6322ZM14.6943 23.848V24.9771H15.8234H16.9525V23.848V22.7189H15.8234H14.6943V23.848ZM37.2767 23.848V24.9771H38.4059H39.535V23.848V22.7189H38.4059H37.2767V23.848ZM38.2647 32.5281L36.7878 34.0101H33.4267H30.0657L29.7194 34.3566L29.3729 34.703V38.5266V42.3502L29.7194 42.6966L30.0657 43.0431H33.8894H37.713L38.0594 42.6966L38.4059 42.3502V38.9893V35.6281L39.8878 34.1512C40.7029 33.339 41.3698 32.6073 41.3698 32.5253C41.3698 32.3384 40.0686 31.0462 39.8805 31.0462C39.8041 31.0462 39.077 31.713 38.2647 32.5281ZM18.0816 36.2684V37.3975H22.5981H27.1146V36.2684V35.1392H22.5981H18.0816V36.2684ZM42.9224 36.2684V37.3975H47.4389H51.9554V36.2684V35.1392H47.4389H42.9224V36.2684ZM33.8487 36.9436C33.483 37.3151 33.1906 37.6802 33.1989 37.7551C33.2072 37.8301 33.5587 38.2047 33.9797 38.5874L34.7452 39.2834L35.4464 38.5928L36.1476 37.9021V39.3435V40.7849H33.8894H31.6311V38.5266V36.2684H33.0724H34.5139L33.8487 36.9436ZM15.8234 40.7849V41.914H21.469H27.1146V40.7849V39.6557H21.469H15.8234V40.7849ZM40.6641 40.7849V41.914H46.3097H51.9554V40.7849V39.6557H46.3097H40.6641V40.7849ZM13.424 43.8194L11.9471 45.3013H8.58597H5.22499L4.87863 45.6479L4.53213 45.9942V49.8178V53.6415L4.87863 53.9879L5.22499 54.3343H9.04863H12.8723L13.2186 53.9879L13.5651 53.6415V50.2805V46.9194L15.0471 45.4425C15.8622 44.6302 16.5291 43.8986 16.5291 43.8166C16.5291 43.6297 15.2279 42.3374 15.0398 42.3374C14.9634 42.3374 14.2362 43.0043 13.424 43.8194ZM38.2647 43.8194L36.7878 45.3013H33.4267H30.0657L29.7194 45.6479L29.3729 45.9942V49.8178V53.6415L29.7194 53.9879L30.0657 54.3343H33.8894H37.713L38.0594 53.9879L38.4059 53.6415V50.2805V46.9194L39.8878 45.4425C40.7029 44.6302 41.3698 43.8986 41.3698 43.8166C41.3698 43.6297 40.0686 42.3374 39.8805 42.3374C39.8041 42.3374 39.077 43.0043 38.2647 43.8194ZM18.0816 47.5596V48.6887H22.5981H27.1146V47.5596V46.4305H22.5981H18.0816V47.5596ZM42.9224 47.5596V48.6887H47.4389H51.9554V47.5596V46.4305H47.4389H42.9224V47.5596ZM9.00798 48.2348C8.64228 48.6063 8.34984 48.9714 8.35817 49.0464C8.3665 49.1213 8.71793 49.4959 9.13896 49.8787L9.9045 50.5746L10.6057 49.884L11.3069 49.1933V50.6348V52.0761H9.04863H6.79038V49.8178V47.5596H8.23171H9.67317L9.00798 48.2348ZM33.8487 48.2348C33.483 48.6063 33.1906 48.9714 33.1989 49.0464C33.2072 49.1213 33.5587 49.4959 33.9797 49.8787L34.7452 50.5746L35.4464 49.884L36.1476 49.1933V50.6348V52.0761H33.8894H31.6311V49.8178V47.5596H33.0724H34.5139L33.8487 48.2348ZM15.8234 52.0761V53.2052H21.469H27.1146V52.0761V50.947H21.469H15.8234V52.0761ZM40.6641 52.0761V53.2052H46.3097H51.9554V52.0761V50.947H46.3097H40.6641V52.0761ZM13.424 55.1106L11.9471 56.5926H8.58597H5.22499L4.87863 56.9391L4.53213 57.2855V61.1091V64.9327L4.87863 65.2791L5.22499 65.6256H9.04863H12.8723L13.2186 65.2791L13.5651 64.9327V61.5718V58.2106L15.0471 56.7337C15.8622 55.9215 16.5291 55.1898 16.5291 55.1078C16.5291 54.9209 15.2279 53.6286 15.0398 53.6286C14.9634 53.6286 14.2362 54.2955 13.424 55.1106ZM18.0816 58.8508V59.98H22.5981H27.1146V58.8508V57.7217H22.5981H18.0816V58.8508ZM9.00798 59.5261C8.64228 59.8975 8.34984 60.2627 8.35817 60.3376C8.3665 60.4126 8.71793 60.7872 9.13896 61.1699L9.9045 61.8659L10.6057 61.1753L11.3069 60.4846V61.926V63.3673H9.04863H6.79038V61.1091V58.8508H8.23171H9.67317L9.00798 59.5261ZM52.5199 60.0165C52.5199 60.0366 51.1226 61.4491 49.4148 63.1556L46.3097 66.2583V63.4656C46.3097 59.7172 46.0495 59.98 49.7613 59.98C51.2786 59.98 52.5199 59.9963 52.5199 60.0165ZM15.8234 63.3673V64.4965H21.469H27.1146V63.3673V62.2382H21.469H15.8234V63.3673Z" fill="white"/>
<path fill-rule="evenodd" clip-rule="evenodd" d="M13.4238 32.5279L11.9469 34.0099H8.58582H5.22484L4.87848 34.3564L4.53198 34.7027V38.5263V42.35L4.87848 42.6963L5.22484 43.0428H9.04848H12.8721L13.2185 42.6963L13.565 42.35V38.989V35.6279L15.047 34.151C15.862 33.3387 16.5289 32.6071 16.5289 32.5251C16.5289 32.3382 15.2278 31.0459 15.0396 31.0459C14.9633 31.0459 14.2361 31.7128 13.4238 32.5279ZM9.00783 36.9433C8.64214 37.3148 8.34969 37.6799 8.35802 37.7549C8.36635 37.8298 8.71779 38.2044 9.13881 38.5872L9.90436 39.2831L10.6055 38.5925L11.3067 37.9018V39.3433V40.7846H9.04848H6.79023V38.5263V36.2681H8.23156H9.67303L9.00783 36.9433Z" fill="#DB3138"/>
<path fill-rule="evenodd" clip-rule="evenodd" d="M13.4238 43.825L11.9469 45.307H8.58582H5.22484L4.87848 45.6535L4.53198 45.9998V49.8235V53.6471L4.87848 53.9935L5.22484 54.34H9.04848H12.8721L13.2185 53.9935L13.565 53.6471V50.2861V46.925L15.047 45.4481C15.862 44.6358 16.5289 43.9042 16.5289 43.8222C16.5289 43.6353 15.2278 42.343 15.0396 42.343C14.9633 42.343 14.2361 43.0099 13.4238 43.825ZM9.00783 48.2404C8.64214 48.6119 8.34969 48.977 8.35802 49.052C8.36635 49.1269 8.71779 49.5015 9.13881 49.8843L9.90436 50.5803L10.6055 49.8897L11.3067 49.1989V50.6404V52.0817H9.04848H6.79023V49.8235V47.5652H8.23156H9.67303L9.00783 48.2404Z" fill="#DB3138"/>
<path fill-rule="evenodd" clip-rule="evenodd" d="M13.4241 55.1164L11.9472 56.5984H8.58607H5.22509L4.87873 56.9449L4.53223 57.2912V61.1148V64.9385L4.87873 65.2848L5.22509 65.6313H9.04872H12.8724L13.2187 65.2848L13.5652 64.9385V61.5775V58.2164L15.0472 56.7395C15.8623 55.9272 16.5292 55.1956 16.5292 55.1136C16.5292 54.9267 15.228 53.6344 15.0399 53.6344C14.9635 53.6344 14.2363 54.3013 13.4241 55.1164ZM9.00799 59.5319C8.6423 59.9034 8.34985 60.2685 8.35818 60.3435C8.36651 60.4184 8.71795 60.793 9.13897 61.1758L9.90452 61.8717L10.6057 61.1811L11.3069 60.4904V61.9319V63.3732H9.04864H6.79039V61.1149V58.8567H8.23172H9.67319L9.00799 59.5319Z" fill="#DB3138"/>
<path fill-rule="evenodd" clip-rule="evenodd" d="M38.2363 43.825L36.7594 45.307H33.3983H30.0373L29.691 45.6535L29.3445 45.9998V49.8235V53.6471L29.691 53.9935L30.0373 54.34H33.861H37.6846L38.031 53.9935L38.3775 53.6471V50.2861V46.925L39.8595 45.4481C40.6745 44.6358 41.3414 43.9042 41.3414 43.8222C41.3414 43.6353 40.0403 42.343 39.8521 42.343C39.7758 42.343 39.0486 43.0099 38.2363 43.825ZM33.8203 48.2404C33.4546 48.6119 33.1622 48.977 33.1705 49.052C33.1788 49.1269 33.5303 49.5015 33.9513 49.8843L34.7169 50.5803L35.418 49.8897L36.1192 49.1989V50.6404V52.0817H33.861H31.6027V49.8235V47.5652H33.0441H34.4855L33.8203 48.2404Z" fill="#DB3138"/>
<path fill-rule="evenodd" clip-rule="evenodd" d="M38.2363 32.534L36.7594 34.016H33.3983H30.0373L29.691 34.3625L29.3445 34.7088V38.5324V42.3561L29.691 42.7024L30.0373 43.0489H33.861H37.6846L38.031 42.7024L38.3775 42.3561V38.9951V35.634L39.8595 34.1571C40.6745 33.3448 41.3414 32.6132 41.3414 32.5312C41.3414 32.3443 40.0403 31.052 39.8521 31.052C39.7758 31.052 39.0486 31.7189 38.2363 32.534ZM33.8203 36.9494C33.4546 37.3209 33.1622 37.686 33.1705 37.761C33.1788 37.8359 33.5303 38.2105 33.9513 38.5933L34.7169 39.2892L35.418 38.5986L36.1192 37.9079V39.3494V40.7907H33.861H31.6027V38.5324V36.2742H33.0441H34.4855L33.8203 36.9494Z" fill="#DB3138"/>
</svg>
