<svg width="70" height="46" viewBox="0 0 70 46" fill="none" xmlns="http://www.w3.org/2000/svg">
<path fill-rule="evenodd" clip-rule="evenodd" d="M15.0028 0.609108C14.8122 0.80064 14.6562 1.04949 14.6562 1.16228C14.6562 1.3304 14.2321 1.37765 12.2914 1.42574C9.63559 1.49157 9.03316 1.6465 7.7498 2.59324C6.34136 3.63219 6.20978 3.93935 2.93122 13.8338C0.109959 22.348 -0.0576255 22.913 0.0111307 23.6747C0.150902 25.2241 1.02398 26.5075 2.3607 27.1288C2.96002 27.4074 3.28714 27.4332 6.72622 27.4741C10.6714 27.5209 10.9883 27.4752 11.1804 26.8308C11.2218 26.6921 11.6724 23.4294 12.1821 19.5803C12.6916 15.7312 13.1933 12.3784 13.2966 12.1296C13.4001 11.8808 13.7324 11.4586 14.0351 11.1912L14.5856 10.705L14.682 13.3216C14.8458 17.7631 15.3144 23.4467 15.7259 25.9858C15.8133 26.5245 15.8173 26.5274 16.3645 26.4469C18.2058 26.1759 18.0677 26.2294 17.9843 25.82C17.6733 24.2935 17.1438 18.0573 16.9737 13.9163L16.879 11.6109H18.6395H20.4L20.5606 12.1493C20.7926 12.9277 21.6052 13.8058 22.501 14.2462C23.3738 14.6754 23.6919 15.0389 23.6919 15.6071C23.6919 16.1337 23.1941 16.6297 22.3611 16.9332C21.5447 17.2305 20.6194 18.1088 20.2699 18.9174C19.9847 19.5775 15.9624 37.6772 15.8334 38.8806C15.5145 41.8579 17.7348 44.8805 20.6987 45.5037C21.7522 45.7251 43.7176 45.723 44.7566 45.5014C47.7432 44.8641 49.9424 41.8714 49.6219 38.8806C49.4458 37.2386 45.436 19.5085 45.0675 18.7429C44.6531 17.8823 43.9387 17.2381 43.0357 16.9108C41.9106 16.5029 41.4578 15.6593 41.9696 14.9249C42.0831 14.7621 42.5262 14.4567 42.9542 14.2462C44.2351 13.6165 45.1518 12.2442 45.1518 10.9567C45.1518 10.6115 45.227 10.471 45.4497 10.3999C45.6136 10.3477 46.9516 9.57721 48.423 8.68793L51.0984 7.07083H60.2027H69.3069L69.6534 6.72253C69.9972 6.3772 70 6.35238 70 3.66582C70 0.979261 69.9972 0.954433 69.6534 0.609108L69.3069 0.260803H57.0111H44.7154L44.3689 0.609108C44.1783 0.80064 44.0223 1.05602 44.0223 1.17661C44.0223 1.37254 42.8208 1.39581 32.7276 1.39581C22.6345 1.39581 21.433 1.37254 21.433 1.17661C21.433 1.05602 21.277 0.80064 21.0864 0.609108C20.7427 0.263641 20.718 0.260803 18.0446 0.260803C15.3712 0.260803 15.3464 0.263641 15.0028 0.609108ZM19.1741 5.93583V9.34084H18.0446H16.9151V5.93583V2.53081H18.0446H19.1741V5.93583ZM60.9643 3.66582V4.80082H55.7257H50.4871L48.3841 6.07274L46.2812 7.34465V4.93773V2.53081H53.6228H60.9643V3.66582ZM67.7411 3.66582V4.80082H65.4821H63.2232V3.66582V2.53081H65.4821H67.7411V3.66582ZM14.6562 5.98066V8.2955L13.8444 8.63288C12.8732 9.03652 11.7436 10.1169 11.3049 11.0617C11.0415 11.6292 10.9271 11.7322 10.4633 11.8194C9.01424 12.092 7.16008 13.4901 6.40913 14.8767C6.14017 15.3734 5.63177 17.1271 4.83974 20.2907C4.19538 22.8644 3.63121 25.0073 3.58603 25.0526C3.54085 25.098 3.34475 25.0622 3.15006 24.9731C2.71874 24.7756 2.23335 24.0112 2.23265 23.5284C2.23194 23.0578 7.94492 5.84971 8.29152 5.27838C8.62754 4.72464 9.40687 4.11783 10.1028 3.86827C10.4471 3.7447 11.3364 3.67603 12.6443 3.67206L14.6562 3.66582V5.98066ZM22.5625 4.80082V5.93583H23.6919H24.8214V4.80082V3.66582H25.9509H27.0803V4.80082V5.93583H28.2098H29.3392V4.80082V3.66582H30.4687H31.5982V4.80082V5.93583H32.7276H33.8571V4.80082V3.66582H34.9866H36.116V4.80082V5.93583H37.2455H38.375V4.80082V3.66582H39.5044H40.6339V4.80082V5.93583H41.7634H42.8928V4.80082V3.66582H43.4576H44.0223V5.93583V8.20584H32.7276H21.433V5.93583V3.66582H21.9977H22.5625V4.80082ZM42.8928 10.8823C42.8928 11.4555 42.449 11.955 41.4775 12.4754C39.8365 13.3544 39.1292 15.0465 39.7107 16.7028C40.0569 17.6885 40.5887 18.2465 41.69 18.7787C42.8513 19.3401 43.1354 19.604 43.2617 20.2392L43.3517 20.6909H32.7276H22.1036L22.1935 20.2392C22.3199 19.604 22.604 19.3401 23.7653 18.7787C24.8666 18.2465 25.3984 17.6885 25.7446 16.7028C26.3261 15.0465 25.6188 13.3544 23.9778 12.4754C23.0063 11.955 22.5625 11.4555 22.5625 10.8823V10.4758H32.7276H42.8928V10.8823ZM10.5606 14.4129C10.5601 14.5495 10.243 17.0234 9.85597 19.9106C9.46899 22.7977 9.15189 25.176 9.15133 25.1954C9.15062 25.2149 8.42607 25.2309 7.54128 25.2309H5.93249L7.02779 20.8599C7.63022 18.4556 8.20568 16.3329 8.30649 16.1425C8.67018 15.4564 9.08539 14.9916 9.70109 14.5819C10.4272 14.0985 10.5623 14.072 10.5606 14.4129ZM43.9294 23.2801C43.9727 23.4558 44.7792 27.0788 45.7216 31.3316C47.579 39.7141 47.6027 39.8982 46.9836 41.1383C46.5629 41.9816 46.062 42.4948 45.2224 42.9431L44.5164 43.3201H32.7276H20.9389L20.3577 43.0076C19.4477 42.5185 18.9078 41.9948 18.5195 41.2248C17.8461 39.8892 17.8567 39.8027 19.7337 31.3316C20.6761 27.0788 21.4825 23.4558 21.5259 23.2801L21.6048 22.9609H32.7276H43.8505L43.9294 23.2801Z" fill="white"/>
<path fill-rule="evenodd" clip-rule="evenodd" d="M36.0406 26.2881C36.4315 25.8946 36.9737 25.502 37.2454 25.4159C38.5594 24.9997 39.7157 25.2914 40.7092 26.2897C41.4404 27.0245 41.7633 27.7431 41.7633 28.6355C41.7633 30.8781 39.2716 32.6579 37.2943 31.8277C37.0155 31.7106 36.7663 31.6148 36.7403 31.6148C36.7145 31.6148 36.7903 31.8862 36.9089 32.2178C37.2157 33.0759 37.3101 34.664 37.1115 35.6247C36.845 36.9126 36.0925 38.2689 35.1349 39.1867C32.4418 41.768 28.3652 41.7309 25.7517 39.1012C22.846 36.1776 23.1153 31.5408 26.3388 28.9907C28.6871 27.133 32.1671 27.0755 34.4903 28.8564L34.9865 29.2366V28.7043C34.9865 27.7435 35.2929 27.0411 36.0406 26.2881ZM34.5638 32.3952C34.1174 31.4826 33.2671 30.6329 32.3747 30.2074C31.453 29.7679 29.9486 29.6731 29.0576 29.9985C25.1983 31.4077 24.8927 36.6123 28.5627 38.4257C29.1478 38.7149 29.474 38.7739 30.4687 38.7703C31.4856 38.7666 31.7787 38.7086 32.3898 38.3904C33.4532 37.8367 33.8966 37.4063 34.4299 36.4104C34.8663 35.5956 34.9086 35.4097 34.9097 34.3105C34.9107 33.3149 34.8504 32.9808 34.5638 32.3952ZM39.1578 27.8491C39.3763 28.0686 39.5044 28.3594 39.5044 28.6358C39.5044 28.9122 39.3763 29.203 39.1578 29.4225C38.9394 29.6421 38.65 29.7708 38.3749 29.7708C38.0999 29.7708 37.8105 29.6421 37.5921 29.4225C37.3735 29.203 37.2455 28.9122 37.2455 28.6358C37.2455 28.3594 37.3735 28.0686 37.5921 27.8491C37.8105 27.6295 38.0999 27.5008 38.3749 27.5008C38.65 27.5008 38.9394 27.6295 39.1578 27.8491Z" fill="#DB3138"/>
</svg>
