<svg width="70" height="46" viewBox="0 0 70 46" fill="none" xmlns="http://www.w3.org/2000/svg">
<path fill-rule="evenodd" clip-rule="evenodd" d="M15.0028 0.488817C14.8122 0.679414 14.6562 0.927049 14.6562 1.03929C14.6562 1.20659 14.2321 1.25361 12.2914 1.30147C9.63559 1.36698 9.03316 1.52115 7.7498 2.46326C6.34136 3.49715 6.20978 3.80281 2.93122 13.6489C0.109959 22.1216 -0.0576255 22.6838 0.0111307 23.4418C0.150902 24.9837 1.02398 26.2608 2.3607 26.8791C2.96002 27.1563 3.28714 27.182 6.72622 27.2227C10.6714 27.2693 10.9883 27.2238 11.1804 26.5826C11.2218 26.4445 11.6724 23.1977 12.1821 19.3674C12.6916 15.5371 13.1933 12.2007 13.2966 11.953C13.4001 11.7055 13.7324 11.2854 14.0351 11.0192L14.5856 10.5354L14.682 13.1393C14.8458 17.5591 15.3144 23.2149 15.7259 25.7417C15.8133 26.2778 15.8173 26.2806 16.3645 26.2005C18.2058 25.9309 18.0677 25.9841 17.9843 25.5766C17.6733 24.0577 17.1438 17.8518 16.9737 13.7311L16.879 11.4369H18.6395H20.4L20.5606 11.9727C20.7926 12.7473 21.6052 13.6211 22.501 14.0593C23.3738 14.4864 23.6919 14.8481 23.6919 15.4136C23.6919 15.9376 23.1941 16.4312 22.3611 16.7332C21.5447 17.0291 20.6194 17.9031 20.2699 18.7078C19.9847 19.3646 15.9624 37.376 15.8334 38.5735C15.5145 41.5363 17.7348 44.5442 20.6987 45.1642C21.7522 45.3846 43.7176 45.3825 44.7566 45.162C47.7432 44.5278 49.9424 41.5497 49.6219 38.5735C49.4458 36.9395 45.436 19.296 45.0675 18.5341C44.6531 17.6777 43.9387 17.0366 43.0357 16.7109C41.9106 16.305 41.4578 15.4655 41.9696 14.7348C42.0831 14.5727 42.5262 14.2689 42.9542 14.0593C44.2351 13.4328 45.1518 12.0671 45.1518 10.7859C45.1518 10.4424 45.227 10.3026 45.4497 10.2319C45.6136 10.1799 46.9516 9.41314 48.423 8.52821L51.0984 6.919H60.2027H69.3069L69.6534 6.5724C69.9972 6.22876 70 6.20405 70 3.53061C70 0.857163 69.9972 0.832457 69.6534 0.488817L69.3069 0.142212H57.0111H44.7154L44.3689 0.488817C44.1783 0.679414 44.0223 0.933544 44.0223 1.05355C44.0223 1.24852 42.8208 1.27168 32.7276 1.27168C22.6345 1.27168 21.433 1.24852 21.433 1.05355C21.433 0.933544 21.277 0.679414 21.0864 0.488817C20.7427 0.145036 20.718 0.142212 18.0446 0.142212C15.3712 0.142212 15.3464 0.145036 15.0028 0.488817ZM19.1741 5.78954V9.17793H18.0446H16.9151V5.78954V2.40114H18.0446H19.1741V5.78954ZM60.9643 3.53061V4.66007H55.7257H50.4871L48.3841 5.92578L46.2812 7.19149V4.79631V2.40114H53.6228H60.9643V3.53061ZM67.7411 3.53061V4.66007H65.4821H63.2232V3.53061V2.40114H65.4821H67.7411V3.53061ZM14.6562 5.83415V8.1377L13.8444 8.47343C12.8732 8.8751 11.7436 9.9502 11.3049 10.8903C11.0415 11.4551 10.9271 11.5576 10.4633 11.6444C9.01424 11.9156 7.16008 13.307 6.40913 14.6868C6.14017 15.181 5.63177 16.9262 4.83974 20.0743C4.19538 22.6355 3.63121 24.7679 3.58603 24.813C3.54085 24.8582 3.34475 24.8226 3.15006 24.7339C2.71874 24.5374 2.23335 23.7767 2.23265 23.2962C2.23194 22.8279 7.94492 5.70384 8.29152 5.13529C8.62754 4.58426 9.40687 3.98042 10.1028 3.73208C10.4471 3.60911 11.3364 3.54077 12.6443 3.53682L14.6562 3.53061V5.83415ZM22.5625 4.66007V5.78954H23.6919H24.8214V4.66007V3.53061H25.9509H27.0803V4.66007V5.78954H28.2098H29.3392V4.66007V3.53061H30.4687H31.5982V4.66007V5.78954H32.7276H33.8571V4.66007V3.53061H34.9866H36.116V4.66007V5.78954H37.2455H38.375V4.66007V3.53061H39.5044H40.6339V4.66007V5.78954H41.7634H42.8928V4.66007V3.53061H43.4576H44.0223V5.78954V8.04847H32.7276H21.433V5.78954V3.53061H21.9977H22.5625V4.66007ZM42.8928 10.7119C42.8928 11.2823 42.449 11.7794 41.4775 12.2972C39.8365 13.1719 39.1292 14.8558 39.7107 16.5039C40.0569 17.4849 40.5887 18.0401 41.69 18.5697C42.8513 19.1284 43.1354 19.391 43.2617 20.0231L43.3517 20.4726H32.7276H22.1036L22.1935 20.0231C22.3199 19.391 22.604 19.1284 23.7653 18.5697C24.8666 18.0401 25.3984 17.4849 25.7446 16.5039C26.3261 14.8558 25.6188 13.1719 23.9778 12.2972C23.0063 11.7794 22.5625 11.2823 22.5625 10.7119V10.3074H32.7276H42.8928V10.7119ZM10.5606 14.2252C10.5601 14.3612 10.243 16.823 9.85597 19.6961C9.46899 22.5692 9.15189 24.9358 9.15133 24.9552C9.15062 24.9745 8.42607 24.9904 7.54128 24.9904H5.93249L7.02779 20.6407C7.63022 18.2482 8.20568 16.1359 8.30649 15.9464C8.67018 15.2636 9.08539 14.8011 9.70109 14.3934C10.4272 13.9124 10.5623 13.886 10.5606 14.2252ZM43.9294 23.0492C43.9727 23.224 44.7792 26.8294 45.7216 31.0613C47.579 39.403 47.6027 39.5861 46.9836 40.8202C46.5629 41.6594 46.062 42.17 45.2224 42.6162L44.5164 42.9913H32.7276H20.9389L20.3577 42.6804C19.4477 42.1936 18.9078 41.6725 18.5195 40.9063C17.8461 39.5772 17.8567 39.4911 19.7337 31.0613C20.6761 26.8294 21.4825 23.224 21.5259 23.0492L21.6048 22.7315H32.7276H43.8505L43.9294 23.0492Z" fill="white"/>
<path fill-rule="evenodd" clip-rule="evenodd" d="M36.0406 26.0425C36.4315 25.6509 36.9737 25.2603 37.2454 25.1746C38.5594 24.7605 39.7157 25.0507 40.7092 26.0441C41.4404 26.7753 41.7633 27.4904 41.7633 28.3784C41.7633 30.6101 39.2716 32.3812 37.2943 31.555C37.0155 31.4386 36.7663 31.3433 36.7403 31.3433C36.7145 31.3433 36.7903 31.6134 36.9089 31.9433C37.2157 32.7972 37.3101 34.3776 37.1115 35.3335C36.845 36.6152 36.0925 37.9649 35.1349 38.8782C32.4418 41.4469 28.3652 41.4099 25.7517 38.7931C22.846 35.8837 23.1153 31.2696 26.3388 28.7319C28.6871 26.8833 32.1671 26.8261 34.4903 28.5982L34.9865 28.9766V28.4469C34.9865 27.4908 35.2929 26.7918 36.0406 26.0425ZM34.5638 32.1198C34.1174 31.2117 33.2671 30.3661 32.3747 29.9427C31.453 29.5053 29.9486 29.411 29.0576 29.7348C25.1983 31.1371 24.8927 36.3163 28.5627 38.1209C29.1478 38.4086 29.474 38.4674 30.4687 38.4638C31.4856 38.4602 31.7787 38.4024 32.3898 38.0858C33.4532 37.5347 33.8966 37.1065 34.4299 36.1154C34.8663 35.3046 34.9086 35.1196 34.9097 34.0258C34.9107 33.0351 34.8504 32.7026 34.5638 32.1198ZM39.1578 27.5959C39.3763 27.8143 39.5044 28.1037 39.5044 28.3788C39.5044 28.6538 39.3763 28.9432 39.1578 29.1616C38.9394 29.3802 38.65 29.5082 38.3749 29.5082C38.0999 29.5082 37.8105 29.3802 37.5921 29.1616C37.3735 28.9432 37.2455 28.6538 37.2455 28.3788C37.2455 28.1037 37.3735 27.8143 37.5921 27.5959C37.8105 27.3773 38.0999 27.2493 38.3749 27.2493C38.65 27.2493 38.9394 27.3773 39.1578 27.5959Z" fill="#DB3138"/>
</svg>
